<svg xmlns="http://www.w3.org/2000/svg" version="1.1" xmlns:xlink="http://www.w3.org/1999/xlink" width="1000" height="1000"><style>
    #light-icon {
      display: inline;
    }
    #dark-icon {
      display: none;
    }

    @media (prefers-color-scheme: dark) {
      #light-icon {
        display: none;
      }
      #dark-icon {
        display: inline;
      }
    }
  </style><g id="light-icon"><svg xmlns="http://www.w3.org/2000/svg" version="1.1" xmlns:xlink="http://www.w3.org/1999/xlink" width="1000" height="1000"><g><g transform="matrix(20.833333333333332,0,0,20.833333333333332,0,0)" style="filter: contrast(1) brightness(1)"><svg xmlns="http://www.w3.org/2000/svg" version="1.1" xmlns:xlink="http://www.w3.org/1999/xlink" width="48" height="48"><svg width="48" height="48" viewBox="0 0 48 48" fill="none" xmlns="http://www.w3.org/2000/svg">
<g clip-path="url(#clip0_97_5080)">
<path d="M15.1307 11.4786C15.9951 11.4786 16.6959 10.7778 16.6959 9.91339C16.6959 9.04893 15.9951 8.34814 15.1307 8.34814C14.2662 8.34814 13.5654 9.04893 13.5654 9.91339C13.5654 10.7778 14.2662 11.4786 15.1307 11.4786Z" fill="black"></path>
<path d="M33.3914 11.4786C34.2559 11.4786 34.9567 10.7778 34.9567 9.91339C34.9567 9.04893 34.2559 8.34814 33.3914 8.34814C32.527 8.34814 31.8262 9.04893 31.8262 9.91339C31.8262 10.7778 32.527 11.4786 33.3914 11.4786Z" fill="black"></path>
<path d="M23.9998 5.2174C24.8643 5.2174 25.5651 4.51662 25.5651 3.65216C25.5651 2.7877 24.8643 2.08691 23.9998 2.08691C23.1354 2.08691 22.4346 2.7877 22.4346 3.65216C22.4346 4.51662 23.1354 5.2174 23.9998 5.2174Z" fill="black"></path>
<path d="M47.5041 35.3786C47.3632 35.2469 44.5204 32.6232 40.4019 31.1853C44.0593 25.9132 43.7235 19.041 43.7049 18.7134C43.6599 17.9168 43.023 17.2815 42.2264 17.2386C41.9575 17.2244 36.2659 16.9541 31.2058 19.4785C29.445 14.2159 25.2542 10.4957 25.0305 10.3001C24.4405 9.78409 23.5596 9.78409 22.9696 10.3001C22.7459 10.4957 18.5551 14.216 16.7943 19.4785C11.734 16.954 6.04253 17.2239 5.77356 17.2386C4.97697 17.2814 4.34003 17.9168 4.29503 18.7134C4.27657 19.041 3.94066 25.9131 7.59812 31.1853C3.4796 32.6233 0.63683 35.247 0.496018 35.3786C-0.165855 35.9976 -0.164823 37.0474 0.496018 37.6652C0.719517 37.8741 6.04693 42.7828 12.7826 42.7828C14.2981 42.7828 15.7419 42.5338 17.0727 42.1463C18.9123 44.2381 22.6589 45.5556 23.5122 45.8353C23.8291 45.9393 24.1709 45.9393 24.4879 45.8353C25.3411 45.5555 29.0878 44.2382 30.9273 42.1463C32.2582 42.5338 33.702 42.7828 35.2175 42.7828C41.953 42.7828 47.2806 37.8742 47.5041 37.6652C48.1659 37.0464 48.1648 35.9965 47.5041 35.3786ZM24.0024 13.6838C25.6883 15.4918 28.845 19.481 28.845 24C28.845 28.5002 25.6826 32.5032 23.9979 34.3162C22.312 32.5083 19.1554 28.519 19.1554 24C19.1553 19.4999 22.3177 15.4968 24.0024 13.6838ZM12.7827 39.6524C9.14555 39.6524 5.88512 37.7877 4.09075 36.5215C5.39472 35.6007 7.47315 34.3669 9.90567 33.7608C12.8186 36.2748 16.5425 37.3398 19.4432 37.783C17.6463 38.7553 15.3052 39.6524 12.7827 39.6524ZM11.3351 30.8117C8.22896 27.6462 7.56783 22.8064 7.44052 20.3818C9.43251 20.4775 13.0517 20.9071 16.0951 22.6549C15.6411 27.0556 17.5144 31.2484 20.2383 34.7337C13.9585 33.8688 11.6788 31.0746 11.3351 30.8117ZM24.0001 42.6917C22.6722 42.2093 21.273 41.5254 20.3167 40.8638C21.9015 40.0716 23.1718 39.1918 24.0001 38.5546C24.8283 39.1918 26.0987 40.0717 27.6835 40.8638C26.7269 41.5255 25.3276 42.2095 24.0001 42.6917ZM31.905 22.6548C34.9506 20.9057 38.5729 20.4768 40.5632 20.3815C40.4408 22.8019 39.7866 27.6318 36.6653 30.8114C36.3222 31.0739 34.0573 33.8537 27.7673 34.7266C30.4947 31.2345 32.3579 27.0456 31.905 22.6548ZM35.2176 39.6524C32.6948 39.6524 30.3536 38.7552 28.5568 37.783C31.4577 37.3398 35.1817 36.2748 38.0946 33.7608C40.5275 34.367 42.606 35.6011 43.9094 36.5214C42.1143 37.788 38.8542 39.6524 35.2176 39.6524Z" fill="black"></path>
</g>
<defs>
<clipPath id="clip0_97_5080">
<rect width="48" height="48" fill="white"></rect>
</clipPath>
</defs>
</svg></svg></g></g></svg></g><g id="dark-icon"><svg xmlns="http://www.w3.org/2000/svg" version="1.1" xmlns:xlink="http://www.w3.org/1999/xlink" width="1000" height="1000"><g><g transform="matrix(20.833333333333332,0,0,20.833333333333332,0,0)"><svg xmlns="http://www.w3.org/2000/svg" version="1.1" xmlns:xlink="http://www.w3.org/1999/xlink" width="48" height="48"><svg width="48" height="48" viewBox="0 0 48 48" fill="none" xmlns="http://www.w3.org/2000/svg">
<g clip-path="url(#clip0_97_5054)">
<path d="M15.1307 11.4786C15.9951 11.4786 16.6959 10.7778 16.6959 9.91339C16.6959 9.04893 15.9951 8.34814 15.1307 8.34814C14.2662 8.34814 13.5654 9.04893 13.5654 9.91339C13.5654 10.7778 14.2662 11.4786 15.1307 11.4786Z" fill="white"></path>
<path d="M33.3914 11.4786C34.2559 11.4786 34.9567 10.7778 34.9567 9.91339C34.9567 9.04893 34.2559 8.34814 33.3914 8.34814C32.527 8.34814 31.8262 9.04893 31.8262 9.91339C31.8262 10.7778 32.527 11.4786 33.3914 11.4786Z" fill="white"></path>
<path d="M23.9998 5.2174C24.8643 5.2174 25.5651 4.51662 25.5651 3.65216C25.5651 2.7877 24.8643 2.08691 23.9998 2.08691C23.1354 2.08691 22.4346 2.7877 22.4346 3.65216C22.4346 4.51662 23.1354 5.2174 23.9998 5.2174Z" fill="white"></path>
<path d="M47.5041 35.3786C47.3632 35.2469 44.5204 32.6232 40.4019 31.1853C44.0593 25.9132 43.7235 19.041 43.7049 18.7134C43.6599 17.9168 43.023 17.2815 42.2264 17.2386C41.9575 17.2244 36.2659 16.9541 31.2058 19.4785C29.445 14.2159 25.2542 10.4957 25.0305 10.3001C24.4405 9.78409 23.5596 9.78409 22.9696 10.3001C22.7459 10.4957 18.5551 14.216 16.7943 19.4785C11.734 16.954 6.04253 17.2239 5.77356 17.2386C4.97697 17.2814 4.34003 17.9168 4.29503 18.7134C4.27657 19.041 3.94066 25.9131 7.59812 31.1853C3.4796 32.6233 0.63683 35.247 0.496018 35.3786C-0.165855 35.9976 -0.164823 37.0474 0.496018 37.6652C0.719517 37.8741 6.04693 42.7828 12.7826 42.7828C14.2981 42.7828 15.7419 42.5338 17.0727 42.1463C18.9123 44.2381 22.6589 45.5556 23.5122 45.8353C23.8291 45.9393 24.1709 45.9393 24.4879 45.8353C25.3411 45.5555 29.0878 44.2382 30.9273 42.1463C32.2582 42.5338 33.702 42.7828 35.2175 42.7828C41.953 42.7828 47.2806 37.8742 47.5041 37.6652C48.1659 37.0464 48.1648 35.9965 47.5041 35.3786ZM24.0024 13.6838C25.6883 15.4918 28.845 19.481 28.845 24C28.845 28.5002 25.6826 32.5032 23.9979 34.3162C22.312 32.5083 19.1554 28.519 19.1554 24C19.1553 19.4999 22.3177 15.4968 24.0024 13.6838ZM12.7827 39.6524C9.14555 39.6524 5.88512 37.7877 4.09075 36.5215C5.39472 35.6007 7.47315 34.3669 9.90567 33.7608C12.8186 36.2748 16.5425 37.3398 19.4432 37.783C17.6463 38.7553 15.3052 39.6524 12.7827 39.6524ZM11.3351 30.8117C8.22896 27.6462 7.56783 22.8064 7.44052 20.3818C9.43251 20.4775 13.0517 20.9071 16.0951 22.6549C15.6411 27.0556 17.5144 31.2484 20.2383 34.7337C13.9585 33.8688 11.6788 31.0746 11.3351 30.8117ZM24.0001 42.6917C22.6722 42.2093 21.273 41.5254 20.3167 40.8638C21.9015 40.0716 23.1718 39.1918 24.0001 38.5546C24.8283 39.1918 26.0987 40.0717 27.6835 40.8638C26.7269 41.5255 25.3276 42.2095 24.0001 42.6917ZM31.905 22.6548C34.9506 20.9057 38.5729 20.4768 40.5632 20.3815C40.4408 22.8019 39.7866 27.6318 36.6653 30.8114C36.3222 31.0739 34.0573 33.8537 27.7673 34.7266C30.4947 31.2345 32.3579 27.0456 31.905 22.6548ZM35.2176 39.6524C32.6948 39.6524 30.3536 38.7552 28.5568 37.783C31.4577 37.3398 35.1817 36.2748 38.0946 33.7608C40.5275 34.367 42.606 35.6011 43.9094 36.5214C42.1143 37.788 38.8542 39.6524 35.2176 39.6524Z" fill="white"></path>
</g>
<defs>
<clipPath id="clip0_97_5054">
<rect width="48" height="48" fill="white"></rect>
</clipPath>
</defs>
</svg></svg></g></g></svg></g></svg>